HIERARCHY
ROOT Hips
{
	OFFSET 0.000000 0.000000 0.000000
	CHANNELS 6 Xposition Yposition Zposition Zrotation Xrotation Yrotation
	JOINT Spine
	{
		OFFSET 0.000000 0.059888 0.006665
		CHANNELS 6 Xposition Yposition Zposition Zrotation Xrotation Yrotation
		JOINT Chest
		{
			OFFSET 0.000000 0.125681 -0.015911
			CHANNELS 6 Xposition Yposition Zposition Zrotation Xrotation Yrotation
			JOINT UpperChest
			{
				OFFSET 0.000000 0.122768 -0.001652
				CHANNELS 6 Xposition Yposition Zposition Zrotation Xrotation Yrotation
				JOINT Neck
				{
					OFFSET 0.000000 0.155865 0.008735
					CHANNELS 6 Xposition Yposition Zposition Zrotation Xrotation Yrotation
					JOINT Head
					{
						OFFSET 0.000000 0.095969 -0.000410
						CHANNELS 6 Xposition Yposition Zposition Zrotation Xrotation Yrotation
						JOINT LeftEye
						{
							OFFSET 0.015267 0.059218 0.021494
							CHANNELS 6 Xposition Yposition Zposition Zrotation Xrotation Yrotation
							End Site
							{
								OFFSET 0.015267 0.059218 0.021494
							}
						}
						JOINT RightEye
						{
							OFFSET -0.015267 0.059218 0.021494
							CHANNELS 6 Xposition Yposition Zposition Zrotation Xrotation Yrotation
							End Site
							{
								OFFSET -0.015267 0.059218 0.021494
							}
						}
					}
				}
				JOINT LeftShoulder
				{
					OFFSET 0.025383 0.124268 0.007699
					CHANNELS 6 Xposition Yposition Zposition Zrotation Xrotation Yrotation
					JOINT LeftUpperArm
					{
						OFFSET 0.136062 0.000000 0.000000
						CHANNELS 6 Xposition Yposition Zposition Zrotation Xrotation Yrotation
						JOINT LeftLowerArm
						{
							OFFSET 0.225446 0.000000 0.000000
							CHANNELS 6 Xposition Yposition Zposition Zrotation Xrotation Yrotation
							JOINT LeftHand
							{
								OFFSET 0.256325 0.000003 0.000015
								CHANNELS 6 Xposition Yposition Zposition Zrotation Xrotation Yrotation
								JOINT LeftIndexProximal
								{
									OFFSET 0.074229 0.008101 0.022282
									CHANNELS 6 Xposition Yposition Zposition Zrotation Xrotation Yrotation
									JOINT LeftIndexIntermediate
									{
										OFFSET 0.037712 0.000000 -0.000001
										CHANNELS 6 Xposition Yposition Zposition Zrotation Xrotation Yrotation
										JOINT LeftIndexDistal
										{
											OFFSET 0.023218 0.000022 0.000021
											CHANNELS 6 Xposition Yposition Zposition Zrotation Xrotation Yrotation
											End Site
											{
												OFFSET 0.023218 0.000022 0.000021
											}
										}
									}
								}
								JOINT LeftLittleProximal
								{
									OFFSET 0.069261 0.008101 -0.033073
									CHANNELS 6 Xposition Yposition Zposition Zrotation Xrotation Yrotation
									JOINT LeftLittleIntermediate
									{
										OFFSET 0.035643 0.000000 0.000000
										CHANNELS 6 Xposition Yposition Zposition Zrotation Xrotation Yrotation
										JOINT LeftLittleDistal
										{
											OFFSET 0.020542 0.000000 0.000000
											CHANNELS 6 Xposition Yposition Zposition Zrotation Xrotation Yrotation
											End Site
											{
												OFFSET 0.020542 0.000000 0.000000
											}
										}
									}
								}
								JOINT LeftMiddleProximal
								{
									OFFSET 0.075240 0.008101 0.002320
									CHANNELS 6 Xposition Yposition Zposition Zrotation Xrotation Yrotation
									JOINT LeftMiddleIntermediate
									{
										OFFSET 0.042007 0.000000 0.000000
										CHANNELS 6 Xposition Yposition Zposition Zrotation Xrotation Yrotation
										JOINT LeftMiddleDistal
										{
											OFFSET 0.025915 0.000000 0.000000
											CHANNELS 6 Xposition Yposition Zposition Zrotation Xrotation Yrotation
											End Site
											{
												OFFSET 0.025915 0.000000 0.000000
											}
										}
									}
								}
								JOINT LeftRingProximal
								{
									OFFSET 0.074383 0.008101 -0.015403
									CHANNELS 6 Xposition Yposition Zposition Zrotation Xrotation Yrotation
									JOINT LeftRingIntermediate
									{
										OFFSET 0.038967 0.000000 0.000000
										CHANNELS 6 Xposition Yposition Zposition Zrotation Xrotation Yrotation
										JOINT LeftRingDistal
										{
											OFFSET 0.022488 0.000000 0.000000
											CHANNELS 6 Xposition Yposition Zposition Zrotation Xrotation Yrotation
											End Site
											{
												OFFSET 0.022488 0.000000 0.000000
											}
										}
									}
								}
								JOINT LeftThumbProximal
								{
									OFFSET 0.003995 -0.010985 0.018096
									CHANNELS 6 Xposition Yposition Zposition Zrotation Xrotation Yrotation
									JOINT LeftThumbIntermediate
									{
										OFFSET 0.052819 -0.000008 -0.000074
										CHANNELS 6 Xposition Yposition Zposition Zrotation Xrotation Yrotation
										JOINT LeftThumbDistal
										{
											OFFSET 0.032489 0.000042 -0.000035
											CHANNELS 6 Xposition Yposition Zposition Zrotation Xrotation Yrotation
											End Site
											{
												OFFSET 0.032489 0.000042 -0.000035
											}
										}
									}
								}
							}
						}
					}
				}
				JOINT RightShoulder
				{
					OFFSET -0.025383 0.124268 0.007699
					CHANNELS 6 Xposition Yposition Zposition Zrotation Xrotation Yrotation
					JOINT RightUpperArm
					{
						OFFSET -0.136062 0.000000 0.000000
						CHANNELS 6 Xposition Yposition Zposition Zrotation Xrotation Yrotation
						JOINT RightLowerArm
						{
							OFFSET -0.225446 0.000000 0.000000
							CHANNELS 6 Xposition Yposition Zposition Zrotation Xrotation Yrotation
							JOINT RightHand
							{
								OFFSET -0.256325 0.000003 0.000015
								CHANNELS 6 Xposition Yposition Zposition Zrotation Xrotation Yrotation
								JOINT RightIndexProximal
								{
									OFFSET -0.074229 0.008101 0.022282
									CHANNELS 6 Xposition Yposition Zposition Zrotation Xrotation Yrotation
									JOINT RightIndexIntermediate
									{
										OFFSET -0.037712 0.000000 -0.000001
										CHANNELS 6 Xposition Yposition Zposition Zrotation Xrotation Yrotation
										JOINT RightIndexDistal
										{
											OFFSET -0.023218 0.000022 0.000021
											CHANNELS 6 Xposition Yposition Zposition Zrotation Xrotation Yrotation
											End Site
											{
												OFFSET -0.023218 0.000022 0.000021
											}
										}
									}
								}
								JOINT RightLittleProximal
								{
									OFFSET -0.069261 0.008101 -0.033073
									CHANNELS 6 Xposition Yposition Zposition Zrotation Xrotation Yrotation
									JOINT RightLittleIntermediate
									{
										OFFSET -0.035643 0.000000 0.000000
										CHANNELS 6 Xposition Yposition Zposition Zrotation Xrotation Yrotation
										JOINT RightLittleDistal
										{
											OFFSET -0.020542 0.000000 0.000000
											CHANNELS 6 Xposition Yposition Zposition Zrotation Xrotation Yrotation
											End Site
											{
												OFFSET -0.020542 0.000000 0.000000
											}
										}
									}
								}
								JOINT RightMiddleProximal
								{
									OFFSET -0.075240 0.008101 0.002320
									CHANNELS 6 Xposition Yposition Zposition Zrotation Xrotation Yrotation
									JOINT RightMiddleIntermediate
									{
										OFFSET -0.042007 0.000000 0.000000
										CHANNELS 6 Xposition Yposition Zposition Zrotation Xrotation Yrotation
										JOINT RightMiddleDistal
										{
											OFFSET -0.025915 0.000000 0.000000
											CHANNELS 6 Xposition Yposition Zposition Zrotation Xrotation Yrotation
											End Site
											{
												OFFSET -0.025915 0.000000 0.000000
											}
										}
									}
								}
								JOINT RightRingProximal
								{
									OFFSET -0.074383 0.008101 -0.015403
									CHANNELS 6 Xposition Yposition Zposition Zrotation Xrotation Yrotation
									JOINT RightRingIntermediate
									{
										OFFSET -0.038967 0.000000 0.000000
										CHANNELS 6 Xposition Yposition Zposition Zrotation Xrotation Yrotation
										JOINT RightRingDistal
										{
											OFFSET -0.022488 0.000000 0.000000
											CHANNELS 6 Xposition Yposition Zposition Zrotation Xrotation Yrotation
											End Site
											{
												OFFSET -0.022488 0.000000 0.000000
											}
										}
									}
								}
								JOINT RightThumbProximal
								{
									OFFSET -0.003995 -0.010985 0.018096
									CHANNELS 6 Xposition Yposition Zposition Zrotation Xrotation Yrotation
									JOINT RightThumbIntermediate
									{
										OFFSET -0.052819 -0.000008 -0.000074
										CHANNELS 6 Xposition Yposition Zposition Zrotation Xrotation Yrotation
										JOINT RightThumbDistal
										{
											OFFSET -0.032489 0.000042 -0.000035
											CHANNELS 6 Xposition Yposition Zposition Zrotation Xrotation Yrotation
											End Site
											{
												OFFSET -0.032489 0.000042 -0.000035
											}
										}
									}
								}
							}
						}
					}
				}
			}
		}
	}
	JOINT LeftUpperLeg
	{
		OFFSET 0.087143 -0.045243 0.001548
		CHANNELS 6 Xposition Yposition Zposition Zrotation Xrotation Yrotation
		JOINT LeftLowerLeg
		{
			OFFSET 0.000000 -0.394432 -0.000001
			CHANNELS 6 Xposition Yposition Zposition Zrotation Xrotation Yrotation
			JOINT LeftFoot
			{
				OFFSET 0.000000 -0.466446 0.003058
				CHANNELS 6 Xposition Yposition Zposition Zrotation Xrotation Yrotation
				JOINT LeftToes
				{
					OFFSET 0.000000 -0.079218 0.140851
					CHANNELS 6 Xposition Yposition Zposition Zrotation Xrotation Yrotation
					End Site
					{
						OFFSET 0.000000 -0.079218 0.140851
					}
				}
			}
		}
	}
	JOINT RightUpperLeg
	{
		OFFSET -0.087143 -0.045243 0.001548
		CHANNELS 6 Xposition Yposition Zposition Zrotation Xrotation Yrotation
		JOINT RightLowerLeg
		{
			OFFSET 0.000000 -0.394432 -0.000001
			CHANNELS 6 Xposition Yposition Zposition Zrotation Xrotation Yrotation
			JOINT RightFoot
			{
				OFFSET 0.000000 -0.466446 0.003058
				CHANNELS 6 Xposition Yposition Zposition Zrotation Xrotation Yrotation
				JOINT RightToes
				{
					OFFSET 0.000000 -0.079218 0.140851
					CHANNELS 6 Xposition Yposition Zposition Zrotation Xrotation Yrotation
					End Site
					{
						OFFSET 0.000000 -0.079218 0.140851
					}
				}
			}
		}
	}
}
MOTION
Frames: 4
Frame Time: 0.041667
0.000811 1.031352 0.006168 -2.455953 15.252610 11.714021 -0.000000 0.059888 0.006665 -0.897846 4.856891 3.198879 -0.000000 0.125681 -0.015911 -0.496249 -2.083388 -0.362589 0.000000 0.122768 -0.001652 -0.000034 -12.397667 -0.000070 0.000000 0.155865 0.008735 -1.449543 15.931966 0.376813 0.000000 0.095969 -0.000410 -0.443828 2.674649 4.996393 0.015267 0.059218 0.021494 -1.701130 3.586998 21.747932 -0.015267 0.059218 0.021494 1.701131 3.587004 -21.747918 0.025383 0.124268 0.007699 11.596970 -1.112288 12.849966 0.136062 0.000000 -0.000000 -96.660796 14.448790 9.925946 0.225446 -0.000000 -0.000000 -9.034602 -0.697501 -25.702439 0.256325 0.000003 0.000015 4.623290 52.987911 -3.941691 0.074229 0.008101 0.022282 -0.012967 0.667615 1.112105 0.037712 0.000000 -0.000001 -1.679196 1.282858 0.674522 0.023218 0.000022 0.000021 -0.334984 1.286453 -0.710998 0.069261 0.008101 -0.033073 0.000006 -0.000047 0.000001 0.035643 -0.000000 0.000000 0.000003 0.000000 0.000001 0.020542 -0.000000 0.000000 0.890203 -0.008558 -1.101170 0.075240 0.008101 0.002320 -0.000002 -0.000006 -0.000006 0.042007 -0.000000 0.000000 0.000003 0.000042 -0.000014 0.025915 -0.000000 0.000000 0.000003 0.000038 -0.000012 0.074383 0.008101 -0.015403 -0.000002 0.000016 0.000005 0.038967 0.000000 0.000000 0.000002 0.000006 -0.000000 0.022488 0.000000 -0.000000 -0.712572 -0.008156 1.310728 0.003995 -0.010985 0.018096 86.199480 49.487521 -89.646574 0.052819 -0.000008 -0.000074 -2.573035 -0.739914 0.463023 0.032489 0.000042 -0.000035 4.590286 -0.705067 -0.717115 -0.025383 0.124268 0.007699 5.707586 -1.097495 -12.551064 -0.136062 0.000000 0.000000 71.052320 33.238460 9.104850 -0.225446 -0.000000 -0.000000 8.492124 13.229038 21.692064 -0.256325 0.000003 0.000015 -10.516029 38.812263 7.531239 -0.074229 0.008101 0.022282 0.012972 0.667619 -1.112107 -0.037712 0.000000 -0.000001 1.679197 1.282860 -0.674520 -0.023218 0.000022 0.000021 0.334985 1.286453 0.710999 -0.069261 0.008101 -0.033073 -0.000002 -0.000043 -0.000002 -0.035643 -0.000000 0.000000 -0.000004 0.000000 0.000001 -0.020542 0.000000 0.000000 -0.890204 -0.008562 1.101171 -0.075240 0.008101 0.002320 0.000001 -0.000008 0.000006 -0.042007 0.000000 0.000000 -0.000002 0.000039 0.000011 -0.025915 -0.000000 0.000000 -0.000004 0.000040 0.000011 -0.074383 0.008101 -0.015403 0.000001 0.000014 -0.000003 -0.038967 0.000000 0.000000 -0.000002 0.000000 -0.000002 -0.022488 0.000000 -0.000000 0.712573 -0.008158 -1.310730 -0.003995 -0.010985 0.018096 -86.199433 49.487514 89.646581 -0.052819 -0.000008 -0.000074 2.573039 -0.739910 -0.463021 -0.032489 0.000042 -0.000035 -4.590278 -0.705067 0.717112 0.087143 -0.045243 0.001548 -5.112019 -11.029585 -0.980535 -0.000000 -0.394432 -0.000001 4.622876 24.437596 -9.908085 -0.000000 -0.466446 0.003058 6.830889 -16.108414 23.838081 0.000000 -0.079218 0.140851 0.000000 0.248287 0.000001 -0.087143 -0.045243 0.001548 -8.491654 -18.909428 -2.770053 -0.000000 -0.394432 -0.000001 7.642315 31.603374 -14.118937 0.000000 -0.466446 0.003058 7.313975 -19.244143 21.649951 -0.000000 -0.079218 0.140851 0.000000 0.248282 0.000002 
-0.000182 1.032616 0.004662 -1.576442 15.267252 11.507482 0.000000 0.059888 0.006665 -1.419439 4.894021 3.220164 -0.000000 0.125681 -0.015911 -1.012290 -2.014827 -0.486698 -0.000000 0.122768 -0.001652 -0.000036 -12.397667 -0.000072 -0.000000 0.155865 0.008735 -1.684514 16.263894 0.418502 0.000000 0.095969 -0.000410 -0.295722 3.376499 6.532953 0.015267 0.059218 0.021494 -1.701131 3.586996 21.747930 -0.015267 0.059218 0.021494 1.701131 3.587005 -21.747918 0.025383 0.124268 0.007699 12.301022 -1.221228 13.531230 0.136062 0.000000 0.000000 -95.962361 14.444366 10.349831 0.225446 -0.000000 -0.000000 -9.289870 1.286237 -25.351871 0.256325 0.000003 0.000015 1.249527 49.043480 -0.609041 0.074229 0.008101 0.022282 -0.012966 0.667619 1.112106 0.037712 0.000000 -0.000001 -1.679195 1.282864 0.674522 0.023218 0.000022 0.000021 -0.334985 1.286453 -0.711000 0.069261 0.008101 -0.033073 0.000005 -0.000038 0.000002 0.035643 -0.000000 0.000000 0.000004 -0.000001 0.000000 0.020542 0.000000 -0.000000 0.890203 -0.008565 -1.101172 0.075240 0.008101 0.002320 0.000000 -0.000007 -0.000007 0.042007 0.000000 0.000000 0.000003 0.000042 -0.000012 0.025915 0.000000 -0.000000 0.000003 0.000039 -0.000012 0.074383 0.008101 -0.015403 0.000001 0.000014 0.000003 0.038967 0.000000 0.000000 0.000003 -0.000001 0.000001 0.022488 0.000000 0.000000 -0.712572 -0.008155 1.310729 0.003995 -0.010985 0.018096 86.199487 49.487517 -89.646581 0.052819 -0.000008 -0.000074 -2.573035 -0.739916 0.463023 0.032489 0.000042 -0.000035 4.590285 -0.705067 -0.717110 -0.025383 0.124268 0.007699 5.859498 -1.213280 -12.845810 -0.136062 -0.000000 -0.000000 70.601302 31.816015 8.075747 -0.225446 -0.000000 -0.000000 8.808009 15.906192 21.329422 -0.256325 0.000003 0.000015 -9.474227 37.369246 7.643061 -0.074229 0.008101 0.022282 0.012968 0.667620 -1.112104 -0.037712 0.000000 -0.000001 1.679196 1.282860 -0.674523 -0.023218 0.000022 0.000021 0.334985 1.286453 0.710998 -0.069261 0.008101 -0.033073 -0.000004 -0.000043 -0.000001 -0.035643 -0.000000 0.000000 -0.000005 -0.000000 0.000001 -0.020542 -0.000000 -0.000000 -0.890201 -0.008562 1.101170 -0.075240 0.008101 0.002320 -0.000000 -0.000008 0.000005 -0.042007 -0.000000 -0.000000 -0.000003 0.000039 0.000013 -0.025915 -0.000000 0.000000 -0.000003 0.000039 0.000013 -0.074383 0.008101 -0.015403 -0.000000 0.000014 -0.000002 -0.038967 0.000000 0.000000 -0.000003 0.000000 -0.000001 -0.022488 -0.000000 0.000000 0.712571 -0.008158 -1.310730 -0.003995 -0.010985 0.018096 -86.199439 49.487521 89.646581 -0.052819 -0.000008 -0.000074 2.573041 -0.739910 -0.463020 -0.032489 0.000042 -0.000035 -4.590281 -0.705065 0.717110 0.087143 -0.045243 0.001548 -5.566685 -10.388662 -1.006889 -0.000000 -0.394432 -0.000001 3.835163 23.343324 -8.102012 -0.000000 -0.466446 0.003058 6.011305 -15.070717 22.546362 0.000000 -0.079218 0.140851 -0.000001 0.248282 0.000003 -0.087143 -0.045243 0.001548 -9.533227 -17.312364 -2.860966 -0.000000 -0.394432 -0.000001 7.662063 29.788572 -14.768110 -0.000000 -0.466446 0.003058 7.402581 -17.927421 23.310799 -0.000000 -0.079218 0.140851 -0.000001 0.248282 -0.000001 
-0.000716 1.033603 0.001156 -0.659910 15.133739 11.378678 0.000000 0.059888 0.006665 -1.973477 5.099169 3.532147 -0.000000 0.125681 -0.015911 -1.509101 -1.767526 -0.607817 -0.000000 0.122768 -0.001652 -0.000036 -12.397662 -0.000072 -0.000000 0.155865 0.008735 -1.825166 16.693800 0.448737 0.000000 0.095969 -0.000410 -0.131109 4.177079 7.680186 0.015267 0.059218 0.021494 -1.701132 3.586990 21.747932 -0.015267 0.059218 0.021494 1.701131 3.586999 -21.747923 0.025383 0.124268 0.007699 13.211653 -1.468229 14.488646 0.136062 -0.000000 -0.000000 -94.893239 14.475307 10.952949 0.225446 -0.000000 0.000000 -9.313057 3.530199 -25.162436 0.256325 0.000003 0.000015 -0.743790 43.688489 1.351188 0.074229 0.008101 0.022282 -0.012966 0.667613 1.112106 0.037712 0.000000 -0.000001 -1.679195 1.282867 0.674523 0.023218 0.000022 0.000021 -0.334984 1.286457 -0.711000 0.069261 0.008101 -0.033073 0.000005 -0.000043 0.000003 0.035643 -0.000000 -0.000000 0.000003 -0.000001 0.000000 0.020542 -0.000000 -0.000000 0.890203 -0.008565 -1.101172 0.075240 0.008101 0.002320 -0.000001 -0.000011 -0.000005 0.042007 -0.000000 0.000000 0.000003 0.000034 -0.000013 0.025915 -0.000000 -0.000000 0.000003 0.000037 -0.000014 0.074383 0.008101 -0.015403 -0.000000 0.000011 0.000005 0.038967 -0.000000 -0.000000 0.000002 -0.000001 -0.000001 0.022488 0.000000 -0.000000 -0.712572 -0.008163 1.310730 0.003995 -0.010985 0.018096 86.199494 49.487521 -89.646574 0.052819 -0.000008 -0.000074 -2.573038 -0.739914 0.463021 0.032489 0.000042 -0.000035 4.590282 -0.705069 -0.717109 -0.025383 0.124268 0.007699 6.060750 -1.469457 -13.410787 -0.136062 -0.000000 -0.000000 69.531968 30.136697 6.912335 -0.225446 -0.000000 -0.000000 9.041471 18.584649 21.258843 -0.256325 0.000003 0.000015 -8.142288 35.434041 8.209072 -0.074229 0.008101 0.022282 0.012970 0.667621 -1.112105 -0.037712 -0.000000 -0.000001 1.679194 1.282861 -0.674523 -0.023218 0.000022 0.000021 0.334983 1.286453 0.711000 -0.069261 0.008101 -0.033073 -0.000002 -0.000042 -0.000001 -0.035643 -0.000000 -0.000000 -0.000007 0.000001 0.000000 -0.020542 -0.000000 0.000000 -0.890205 -0.008560 1.101168 -0.075240 0.008101 0.002320 0.000001 -0.000007 0.000004 -0.042007 -0.000000 0.000000 -0.000002 0.000040 0.000012 -0.025915 0.000000 -0.000000 -0.000003 0.000039 0.000011 -0.074383 0.008101 -0.015403 0.000003 0.000015 -0.000003 -0.038967 -0.000000 0.000000 -0.000002 0.000001 -0.000002 -0.022488 0.000000 0.000000 0.712573 -0.008157 -1.310731 -0.003995 -0.010985 0.018096 -86.199433 49.487514 89.646581 -0.052819 -0.000008 -0.000074 2.573042 -0.739909 -0.463021 -0.032489 0.000042 -0.000035 -4.590285 -0.705066 0.717110 0.087143 -0.045243 0.001548 -5.910507 -10.156526 -1.045857 -0.000000 -0.394432 -0.000001 2.607533 22.989191 -5.336089 -0.000000 -0.466446 0.003058 5.295083 -14.657340 20.592786 0.000000 -0.079218 0.140851 0.000000 0.248287 -0.000003 -0.087143 -0.045243 0.001548 -10.843931 -15.916567 -3.007034 -0.000000 -0.394432 -0.000001 7.986829 27.843048 -16.080326 -0.000000 -0.466446 0.003058 7.310164 -16.155899 25.257871 0.000000 -0.079218 0.140851 -0.000000 0.248282 -0.000001 
-0.000050 1.034085 -0.001941 0.251048 15.033164 11.623344 -0.000000 0.059888 0.006665 -2.506828 5.410386 3.780855 0.000000 0.125681 -0.015911 -1.961575 -1.418759 -0.721519 0.000000 0.122768 -0.001652 -0.000034 -12.397657 -0.000073 0.000000 0.155865 0.008735 -1.782062 17.192049 0.465377 0.000000 0.095969 -0.000410 0.039075 4.868150 8.181995 0.015267 0.059218 0.021494 -1.701132 3.586987 21.747930 -0.015267 0.059218 0.021494 1.701132 3.587000 -21.747920 0.025383 0.124268 0.007699 14.301334 -1.789813 15.555771 0.136062 -0.000000 -0.000000 -93.265598 14.492987 11.695755 0.225446 -0.000000 -0.000000 -9.497153 5.951477 -25.487058 0.256325 0.000003 0.000015 -1.583575 38.798729 2.010730 0.074229 0.008101 0.022282 -0.012967 0.667620 1.112105 0.037712 0.000000 -0.000001 -1.679195 1.282860 0.674521 0.023218 0.000022 0.000021 -0.334984 1.286454 -0.710999 0.069261 0.008101 -0.033073 0.000004 -0.000042 0.000002 0.035643 -0.000000 -0.000000 0.000003 -0.000000 -0.000001 0.020542 0.000000 -0.000000 0.890203 -0.008564 -1.101173 0.075240 0.008101 0.002320 -0.000001 -0.000008 -0.000005 0.042007 -0.000000 0.000000 0.000003 0.000040 -0.000013 0.025915 -0.000000 0.000000 0.000003 0.000040 -0.000013 0.074383 0.008101 -0.015403 -0.000000 0.000015 0.000005 0.038967 0.000000 0.000000 0.000003 0.000003 -0.000001 0.022488 0.000000 0.000000 -0.712572 -0.008157 1.310729 0.003995 -0.010985 0.018096 86.199494 49.487521 -89.646574 0.052819 -0.000008 -0.000074 -2.573037 -0.739916 0.463022 0.032489 0.000042 -0.000035 4.590285 -0.705068 -0.717107 -0.025383 0.124268 0.007699 6.394503 -1.800629 -14.193585 -0.136062 0.000000 -0.000000 67.207689 28.274140 5.884856 -0.225446 0.000000 0.000000 9.695920 21.284630 22.060683 -0.256325 0.000003 0.000015 -6.552822 33.592957 8.680805 -0.074229 0.008101 0.022282 0.012969 0.667619 -1.112105 -0.037712 0.000000 -0.000001 1.679196 1.282860 -0.674521 -0.023218 0.000022 0.000021 0.334984 1.286453 0.710998 -0.069261 0.008101 -0.033073 -0.000005 -0.000043 -0.000001 -0.035643 -0.000000 -0.000000 -0.000002 0.000000 0.000002 -0.020542 -0.000000 0.000000 -0.890204 -0.008561 1.101175 -0.075240 0.008101 0.002320 0.000000 -0.000008 0.000007 -0.042007 -0.000000 0.000000 -0.000003 0.000039 0.000014 -0.025915 -0.000000 0.000000 -0.000003 0.000040 0.000011 -0.074383 0.008101 -0.015403 -0.000000 0.000014 -0.000003 -0.038967 0.000000 0.000000 -0.000003 -0.000000 -0.000001 -0.022488 0.000000 -0.000000 0.712574 -0.008159 -1.310727 -0.003995 -0.010985 0.018096 -86.199433 49.487524 89.646581 -0.052819 -0.000008 -0.000074 2.573042 -0.739910 -0.463020 -0.032489 0.000042 -0.000035 -4.590277 -0.705065 0.717110 0.087143 -0.045243 0.001548 -6.395309 -9.236472 -1.030696 -0.000000 -0.394432 -0.000001 1.665157 22.196059 -3.066313 0.000000 -0.466446 0.003058 4.408550 -13.843294 18.317200 -0.000000 -0.079218 0.140851 0.000001 0.248285 0.000001 -0.087143 -0.045243 0.001548 -12.437901 -14.501962 -3.161229 0.000000 -0.394432 -0.000001 8.616605 26.348343 -17.882639 0.000000 -0.466446 0.003058 7.249539 -14.691079 27.228809 0.000000 -0.079218 0.140851 0.000001 0.248283 0.000002 
